<svg width="32" height="32" viewBox="0 0 32 32" fill="none" xmlns="http://www.w3.org/2000/svg">
<style>
.path {
fill: #003C94;
}
@media ( prefers-color-scheme: dark ) {
.path {
fill: #F6FDFD;
}
}
</style>
<path class="path" d="M21.3334 6.33333C21.3334 9.27885 18.9455 11.6667 16 11.6667C13.0545 11.6667 10.6667 9.27885 10.6667 6.33333C10.6667 3.38781 13.0545 1 16 1C18.9455 1 21.3334 3.38781 21.3334 6.33333Z"/>
<path class="path" d="M32 25.5333C32 28.4788 29.6122 30.8666 26.6666 30.8666C23.7211 30.8666 21.3333 28.4788 21.3333 25.5333C21.3333 22.5878 23.7211 20.2 26.6666 20.2C29.6122 20.2 32 22.5878 32 25.5333Z"/>
<path class="path" d="M10.6667 25.5333C10.6667 28.4788 8.27885 30.8666 5.33333 30.8666C2.38781 30.8666 0 28.4788 0 25.5333C0 22.5878 2.38781 20.2 5.33333 20.2C8.27885 20.2 10.6667 22.5878 10.6667 25.5333Z"/>
</svg>
